# xmcd
#
# Track frame offsets: 
#        150
#        12681
#        29774
#        45236
#        59982
#        77391
#        92719
#
# Disc length: 1468 seconds
#
# Revision: 0
# Processed by: cddbd v1.5.2PL0 Copyright (c) Steve Scherf et al.
# Submitted via: ExactAudioCopyFreeDBPlugin 1.0
#
DISCID=5705ba07
DTITLE=Cosima - South of Heaven
DYEAR=2016
DGENRE=Alternative
TTITLE0=WYD
TTITLE1=Concubing All
TTITLE2=Hymn for Him
TTITLE3=Girls Who Get Ready
TTITLE4=Had to Fell Something
TTITLE5=South of Heaven
TTITLE6=Supernova
EXTD=
EXTT0=
EXTT1=
EXTT2=
EXTT3=
EXTT4=
EXTT5=
EXTT6=
PLAYORDER=
